{"title":"A Great Big World &amp; Christina Aguilera - Say Something [Musi","uid":9336340,"size":57920950,"categoryP":"video","categoryS":"music_videos","magnet":"?xt=urn:btih:6319d0b02844919e86925869a5071007966868d2&amp;dn=A+Great+Big+World+%26amp%3B+Christina+Aguilera+-+Say+Something+%5BMusi&amp;tr=udp%3A%2F%2Ftracker.openbittorrent.com%3A80&amp;tr=udp%3A%2F%2Fopen.demonii.com%3A1337&amp;tr=udp%3A%2F%2Ftracker.coppersurfer.tk%3A6969&amp;tr=udp%3A%2F%2Fexodus.desync.com%3A6969","seeders":0,"leechers":0,"uploader":"Sbyky","files":1,"time":1386860864,"description":"\n\nGeneral\nComplete name                            : A Great Big World &amp; Christina Aguilera - Say Something [Music Video] 1080p [Sbyky].mp4\nFormat                                   : MPEG-4\nFormat profile                           : Base Media\nCodec ID                                 : isom\nFile size                                : 55.2 MiB\nDuration                                 : 3mn 51s\nOverall bit rate mode                    : Variable\nOverall bit rate                         : 2 003 Kbps\nEncoded date                             : UTC 2013-12-03 04:27:34\nTagged date                              : UTC 2013-12-03 04:27:34\n\nVideo\nID                                       : 1\nFormat                                   : AVC\nFormat/Info                              : Advanced Video Codec\nFormat profile                           : &lt;a class=&quot;__cf_email__&quot; href=&quot;/cdn-cgi/l/email-protection&quot; data-cfemail=&quot;0d45646a654d4139233d&quot;&gt;[email&amp;#160;protected]&lt;/a&gt;&lt;script data-cfhash='f9e31' type=&quot;text/javascript&quot;&gt;\n/* &lt;![CDATA[ */!function(){try{var t=&quot;currentScript&quot;in document?document.currentScript:function(){for(var t=document.getElementsByTagName(&quot;script&quot;),e=t.length;e--;)if(t[e].getAttribute(&quot;data-cfhash&quot;))return t[e]}();if(t&amp;&amp;t.previousSibling){var e,r,n,i,c=t.previousSibling,a=c.getAttribute(&quot;data-cfemail&quot;);if(a){for(e=&quot;&quot;,r=parseInt(a.substr(0,2),16),n=2;a.length-n;n+=2)i=parseInt(a.substr(n,2),16)^r,e+=String.fromCharCode(i);e=document.createTextNode(e),c.parentNode.replaceChild(e,c)}t.parentNode.removeChild(t);}}catch(u){}}()/* ]]&gt; */&lt;/script&gt;\nFormat settings, CABAC                   : Yes\nFormat settings, ReFrames                : 3 frames\nCodec ID                                 : avc1\nCodec ID/Info                            : Advanced Video Coding\nDuration                                 : 3mn 51s\nBit rate                                 : 1 875 Kbps\nWidth                                    : 1 920 pixels\nHeight                                   : 1 080 pixels\nDisplay aspect ratio                     : 16:9\nFrame rate mode                          : Constant\nFrame rate                               : 23.976 fps\nColor space                              : YUV\nChroma subsampling                       : 4:2:0\nBit depth                                : 8 bits\nScan type                                : Progressive\nBits/(Pixel*Frame)                       : 0.038\nStream size                              : 51.7 MiB (94%)\nEncoded date                             : UTC 2013-12-03 04:27:34\nTagged date                              : UTC 2013-12-03 04:27:34\n\nAudio\nID                                       : 2\nFormat                                   : AAC\nFormat/Info                              : Advanced Audio Codec\nFormat profile                           : LC\nCodec ID                                 : 40\nDuration                                 : 3mn 51s\nBit rate mode                            : Variable\nBit rate                                 : 126 Kbps\nChannel(s)                               : 2 channels\nChannel positions                        : Front: L R\nSampling rate                            : 44.1 KHz\nCompression mode                         : Lossy\nDelay relative to video                  : 42ms\nStream size                              : 3.46 MiB (6%)\nEncoded date                             : UTC 2013-12-03 04:26:31\nTagged date                              : UTC 2013-12-03 04:26:31\n\nShared By Sbyky\n","torrent":{"xt":"urn:btih:6319d0b02844919e86925869a5071007966868d2","amp;dn":"A+Great+Big+World+%26amp%3B+Christina+Aguilera+-+Say+Something+%5BMusi","amp;tr":["udp%3A%2F%2Ftracker.openbittorrent.com%3A80","udp%3A%2F%2Fopen.demonii.com%3A1337","udp%3A%2F%2Ftracker.coppersurfer.tk%3A6969","udp%3A%2F%2Fexodus.desync.com%3A6969"],"infoHash":"6319d0b02844919e86925869a5071007966868d2","infoHashBuffer":{"type":"Buffer","data":[99,25,208,176,40,68,145,158,134,146,88,105,165,7,16,7,150,104,104,210]},"announce":[],"urlList":[]}}